<svg width="491" height="491" xmlns="http://www.w3.org/2000/svg" xmlns:xlink="http://www.w3.org/1999/xlink" overflow="hidden"><defs><clipPath id="clip0"><rect x="0" y="0" width="491" height="491"/></clipPath></defs><g clip-path="url(#clip0)"><rect x="0" y="0" width="491" height="491" fill="#FFFFFF" fill-opacity="0"/><path d="M57.5 246C57.5 141.894 141.894 57.5 246 57.5 350.106 57.5 434.5 141.894 434.5 246 434.5 350.106 350.106 434.5 246 434.5 141.894 434.5 57.5 350.106 57.5 246Z" stroke="#507E32" stroke-width="1.33243" stroke-miterlimit="8" fill="#70AD47" fill-rule="evenodd"/><path d="M76.012 150.5C68.5842 211.84 74.9642 263.591 131.944 285.696 188.924 307.802 414.016 293.946 430.5 283.73" stroke="#FFFFFF" stroke-width="2.99796" stroke-miterlimit="8" fill="none" fill-rule="evenodd"/><path d="M60.5 277.475C71.0581 289.908 92.3976 268.196 104.204 243.914 116.011 219.631 114.666 125.703 131.341 131.782 148.015 137.861 155.523 255.719 204.252 280.389 252.982 305.06 343.741 292.433 434.5 279.806" stroke="#FFFFFF" stroke-width="2.99796" stroke-miterlimit="8" fill="none" fill-rule="evenodd"/><path d="M57 279.271C97.8916 291.926 138.783 304.581 170.1 279.869 201.417 255.157 219.868 131 244.902 131 269.935 131 288.785 254.858 320.302 279.869 351.818 304.88 434 281.065 434 281.065" stroke="#FFFFFF" stroke-width="7.99457" stroke-miterlimit="8" fill="none" fill-rule="evenodd"/></g></svg>