<svg width="491" height="491" xmlns="http://www.w3.org/2000/svg" xmlns:xlink="http://www.w3.org/1999/xlink" overflow="hidden"><defs><clipPath id="clip0"><rect x="0" y="0" width="491" height="491"/></clipPath></defs><g clip-path="url(#clip0)"><rect x="0" y="0" width="491" height="491" fill="#FFFFFF" fill-opacity="0"/><path d="M57.5 246C57.5 141.894 141.894 57.5 246 57.5 350.106 57.5 434.5 141.894 434.5 246 434.5 350.106 350.106 434.5 246 434.5 141.894 434.5 57.5 350.106 57.5 246Z" stroke="#507E32" stroke-width="1.33243" stroke-miterlimit="8" fill="#70AD47" fill-rule="evenodd"/><path d="M79.9839 155.5C72.6393 214.753 78.9478 264.745 135.289 286.098 191.631 307.451 414.201 294.067 430.5 284.199" stroke="#FFFFFF" stroke-width="2.99796" stroke-miterlimit="8" fill="none" fill-rule="evenodd"/><path d="M60.5 277.475C71.0581 289.908 92.3976 268.196 104.204 243.914 116.011 219.631 114.666 125.703 131.341 131.782 148.015 137.861 155.523 255.719 204.252 280.389 252.982 305.06 343.741 292.433 434.5 279.806" stroke="#FFFFFF" stroke-width="2.99796" stroke-miterlimit="8" fill="none" fill-rule="evenodd"/><path d="M57 279.271C97.8916 291.926 138.783 304.581 170.1 279.869 201.417 255.157 219.868 131 244.902 131 269.935 131 288.785 254.858 320.302 279.869 351.818 304.88 434 281.065 434 281.065" stroke="#FFFFFF" stroke-width="7.99457" stroke-miterlimit="8" fill="none" fill-rule="evenodd"/><path d="M154 293.824C155.472 293.596 158.176 293.367 159.748 292.634 160.786 292.15 163.496 290.128 164.219 289.656 165.477 288.836 166.794 288.096 168.051 287.275 168.923 286.706 169.703 286.014 170.606 285.489 171.413 285.018 172.399 284.83 173.161 284.298 174.124 283.624 174.809 282.655 175.716 281.916 176.517 281.263 177.462 280.776 178.27 280.13 182.573 276.691 177.868 279.785 182.103 277.153 182.528 276.557 183.037 276.006 183.38 275.366 184.345 273.568 184.069 272.02 184.657 270.008 184.959 268.977 185.532 268.031 185.935 267.031 186.724 265.069 186.485 264.863 187.851 262.863 188.834 261.422 189.98 260.084 191.044 258.695 191.257 258.099 191.262 257.398 191.683 256.908 193 255.374 194.311 253.695 196.154 252.74 201.709 249.863 201.079 249.951 206.373 247.977 208.062 247.347 209.723 246.622 211.482 246.191 213.784 245.626 216.166 245.397 218.508 245 225.108 245.198 231.743 244.934 238.308 245.595 239.727 245.739 240.809 246.899 242.14 247.382 244.65 248.292 247.27 248.913 249.804 249.763 256.764 252.099 263.173 254.502 269.604 258.099 272.932 259.961 272.963 259.798 275.99 262.267 278.301 264.152 278.061 264.735 281.1 266.435 282.083 266.985 283.229 267.229 284.294 267.626 285.784 268.817 287.131 270.184 288.764 271.198 289.718 271.791 290.951 271.878 291.958 272.389 293.306 273.075 294.548 273.929 295.79 274.771 296.892 275.518 297.833 276.47 298.983 277.153 300.188 277.867 301.627 278.2 302.816 278.939 303.567 279.406 303.97 280.273 304.732 280.725 306.338 281.678 308.138 282.313 309.841 283.107 310.693 283.504 311.512 283.968 312.396 284.298 313.461 284.695 314.583 284.977 315.589 285.489 316.937 286.174 318.048 287.23 319.422 287.87 320.207 288.236 321.155 288.178 321.976 288.466 326.455 290.031 322.741 289.12 326.447 290.847 328.105 291.62 330.56 291.733 332.195 292.038 334.609 292.488 336.139 293.065 338.582 293.824 339.221 294.023 339.938 294.072 340.499 294.42L342.415 295.611C343.204 297.083 345.276 300.162 344.969 302.16 344.473 305.401 344.555 309.093 342.415 311.687 339.965 314.655 336.03 316.524 332.195 317.641 317.632 321.884 325.482 319.996 308.564 323 293.874 322.405 279.131 322.519 264.494 321.214 254.599 320.331 244.954 317.761 235.114 316.45 230.643 315.855 226.147 315.408 221.702 314.664 212.147 313.065 209.647 312.003 200.625 309.901 196.166 308.862 191.572 308.279 187.212 306.924 185.935 306.527 184.61 306.243 183.38 305.733 180.77 304.651 177.735 304.043 175.716 302.16 175.077 301.565 174.566 300.82 173.8 300.374 172.827 299.808 171.687 299.539 170.606 299.183 168.067 298.348 165.35 297.924 162.942 296.802 160.118 295.485 161.06 296.238 159.748 295.015" stroke="#70AD47" stroke-width="1.99864" stroke-miterlimit="8" fill="#70AD47" fill-rule="evenodd"/></g></svg>