<svg width="529" height="416" xmlns="http://www.w3.org/2000/svg" xmlns:xlink="http://www.w3.org/1999/xlink" overflow="hidden"><defs><clipPath id="clip0"><rect x="0" y="0" width="529" height="416"/></clipPath></defs><g clip-path="url(#clip0)"><rect x="0" y="0" width="529" height="416.465" fill="#FFFFFF"/><path d="M73.5 208.733C73.5 104.234 159.909 19.5218 266.5 19.5218 373.091 19.5218 459.5 104.234 459.5 208.733 459.5 313.231 373.091 397.944 266.5 397.944 159.909 397.944 73.5 313.231 73.5 208.733Z" stroke="#507E32" stroke-width="1.33291" stroke-miterlimit="8" fill="#70AD47" fill-rule="evenodd"/><path d="M27 239.361C74.2559 251.402 121.512 263.444 161.852 240.237 202.192 217.03 233.504 98.9526 269.042 100.12 304.58 101.288 333.587 225.204 375.08 247.243 416.573 269.282 467.286 250.819 518 232.355" stroke="#FFFFFF" stroke-width="7.99748" stroke-miterlimit="8" fill="none" fill-rule="evenodd"/></g></svg>